<svg xmlns="http://www.w3.org/2000/svg" xmlns:xlink="http://www.w3.org/1999/xlink" width="204" zoomAndPan="magnify" viewBox="0 0 153 153.000002" height="204" preserveAspectRatio="xMidYMid meet" version="1.0"><defs><clipPath id="a9bbcbbc00"><path d="M 0.496094 0 L 152.503906 0 L 152.503906 152.007812 L 0.496094 152.007812 Z M 0.496094 0 " clip-rule="nonzero"/></clipPath><clipPath id="cc426a1395"><path d="M 0.496094 0 L 152.433594 0 L 152.433594 151.9375 L 0.496094 151.9375 Z M 0.496094 0 " clip-rule="nonzero"/></clipPath><clipPath id="1b9d8d54a5"><rect x="0" width="153" y="0" height="153"/></clipPath></defs><g clip-path="url(#a9bbcbbc00)"><g transform="matrix(1, 0, 0, 1, 0.000000000000000056, 0.000000000000009523)"><g clip-path="url(#1b9d8d54a5)"><g clip-path="url(#cc426a1395)"><path fill="#fffff1" d="M 76.5 152.007812 C 76.5 101.328125 51.175781 76.003906 0.496094 76.003906 C 51.175781 76.003906 76.5 50.679688 76.5 0 C 76.5 50.679688 101.824219 76.003906 152.503906 76.003906 C 101.824219 76.003906 76.5 101.328125 76.5 152.007812 Z M 76.5 152.007812 " fill-opacity="1" fill-rule="nonzero"/></g></g></g></g></svg>