<svg width="32" height="32" viewBox="0 0 32 32" fill="none" xmlns="http://www.w3.org/2000/svg">
<mask id="mask0_59_23442" style="mask-type:luminance" maskUnits="userSpaceOnUse" x="3" y="0" width="26" height="32">
<path d="M28.2352 0.62793H3.76465V31.1639H28.2352V0.62793Z" fill="white"/>
</mask>
<g mask="url(#mask0_59_23442)">
<mask id="mask1_59_23442" style="mask-type:luminance" maskUnits="userSpaceOnUse" x="11" y="13" width="15" height="15">
<path d="M11.2941 13.1768H25.5163V27.6081H11.2941V13.1768Z" fill="white"/>
</mask>
<g mask="url(#mask1_59_23442)">
<mask id="mask2_59_23442" style="mask-type:luminance" maskUnits="userSpaceOnUse" x="3" y="0" width="25" height="32">
<path d="M3.9845 6.31763L18.1838 0.713867L27.9633 25.4908L13.7639 31.0946L3.9845 6.31763Z" fill="white"/>
</mask>
<g mask="url(#mask2_59_23442)">
<mask id="mask3_59_23442" style="mask-type:luminance" maskUnits="userSpaceOnUse" x="3" y="0" width="25" height="32">
<path d="M3.9845 6.31763L18.1838 0.713867L27.9633 25.4908L13.7639 31.0946L3.9845 6.31763Z" fill="white"/>
</mask>
<g mask="url(#mask3_59_23442)">
<path d="M23.192 13.2724C23.1855 13.2552 23.1716 13.2413 23.1544 13.2348L23.0793 13.207L22.969 13.3059L17.1029 16.2863C17.0842 16.2961 17.0719 16.3141 17.0678 16.3345C17.0654 16.3549 17.0719 16.3761 17.0874 16.3909L17.46 16.7528L17.558 16.8492L25.0768 24.1654L22.4363 26.8786L14.4469 19.1041C14.4314 19.0894 14.411 19.0837 14.3897 19.0869C14.3856 19.0878 14.3815 19.0886 14.3775 19.0902C14.3627 19.0967 14.3497 19.1082 14.3431 19.1229L11.5237 25.0681L11.4575 25.2552L11.6708 25.7953C11.6806 25.819 11.7034 25.8353 11.7288 25.8361C11.7549 25.8369 11.7786 25.8222 11.79 25.7994L14.634 19.801L22.6054 27.5567C22.6242 27.5747 22.6511 27.5796 22.674 27.5706C22.683 27.5673 22.6904 27.5624 22.6969 27.5559L25.4281 24.7487C25.4404 24.7364 25.4469 24.7201 25.4469 24.7029C25.4461 24.6948 25.4453 24.6874 25.4428 24.6809C25.4395 24.6719 25.232 24.1482 25.2296 24.1409C25.2263 24.1319 25.2206 24.1237 25.2141 24.1172L17.6806 16.7871L23.3742 13.8933C23.3971 13.8819 23.411 13.8574 23.4101 13.832C23.4085 13.8059 23.1944 13.2781 23.192 13.2724Z" fill="black"/>
</g>
</g>
</g>
<mask id="mask4_59_23442" style="mask-type:luminance" maskUnits="userSpaceOnUse" x="3" y="6" width="23" height="22">
<path d="M3.97388 6.27441H25.3072V27.1894H3.97388V6.27441Z" fill="white"/>
</mask>
<g mask="url(#mask4_59_23442)">
<mask id="mask5_59_23442" style="mask-type:luminance" maskUnits="userSpaceOnUse" x="3" y="0" width="25" height="32">
<path d="M3.9845 6.31763L18.1838 0.713867L27.9633 25.4908L13.7639 31.0946L3.9845 6.31763Z" fill="white"/>
</mask>
<g mask="url(#mask5_59_23442)">
<mask id="mask6_59_23442" style="mask-type:luminance" maskUnits="userSpaceOnUse" x="3" y="0" width="25" height="32">
<path d="M3.9845 6.31763L18.1838 0.713867L27.9633 25.4908L13.7639 31.0946L3.9845 6.31763Z" fill="white"/>
</mask>
<g mask="url(#mask6_59_23442)">
<path d="M23.1544 13.2342L4.09557 6.30772C4.07188 6.29873 4.04492 6.30527 4.02694 6.32324C4.00897 6.34203 4.00325 6.36899 4.01305 6.39269L11.4575 25.2546C11.4673 25.2791 11.4902 25.2946 11.5155 25.2955C11.5416 25.2963 11.5653 25.2824 11.5768 25.2587L14.4216 19.2603L22.3921 27.0161C22.4109 27.0348 22.4387 27.0389 22.4616 27.0299C22.4698 27.0267 22.4771 27.0218 22.4845 27.0152L25.2149 24.208C25.2271 24.1958 25.2336 24.1794 25.2336 24.1623C25.2336 24.1451 25.2263 24.1288 25.214 24.1165L17.2426 16.3608L23.1609 13.3535C23.1846 13.3412 23.1985 13.3175 23.1969 13.2914C23.1952 13.2652 23.1781 13.2432 23.1544 13.2342Z" fill="#E23614"/>
</g>
</g>
</g>
</g>
</svg>
